Results
version=1
nRows=9
nColumns=24
inDegrees=yes
endheader
time	pelvis_tilt	pelvis_list	pelvis_rotation	pelvis_tx	pelvis_ty	pelvis_tz	hip_flexion_r	hip_adduction_r	hip_rotation_r	knee_angle_r	ankle_angle_r	subtalar_angle_r	mtp_angle_r	hip_flexion_l	hip_adduction_l	hip_rotation_l	knee_angle_l	ankle_angle_l	subtalar_angle_l	mtp_angle_l	lumbar_extension	lumbar_bending	lumbar_rotation
      0.85850000	     -4.80061844	      0.93655782	      0.96959279	     -0.33793430	      1.06715868	      0.33907843	     14.57699817	      1.89983518	     -1.70471529	    -17.10749082	      7.30958149	     -5.02830640	      9.25649895	     22.02245996	     -4.02324251	     -6.42468976	    -66.32967889	     10.56325246	      7.31171792	      6.55675763	     -4.43506063	      4.52581852	      0.04441776
      0.86266667	     -4.79519216	      1.02123554	      0.80209001	     -0.33322893	      1.06777006	      0.33960560	     14.14778402	      1.87739261	     -1.50013067	    -16.78911265	      7.39637008	     -5.06335448	      9.24821239	     22.44064396	     -3.99592276	     -6.65813309	    -65.70224273	     10.71886271	      7.45517467	      6.52839986	     -4.44140332	      4.39624167	      0.29824927
      0.86683333	     -4.79683771	      1.11311037	      0.62633174	     -0.32853321	      1.06834326	      0.34012879	     13.73272727	      1.84403723	     -1.29050190	    -16.48086877	      7.47957482	     -5.06688757	      9.24196791	     22.85317616	     -3.96235006	     -6.89950801	    -65.03186993	     10.84643202	      7.56361447	      6.50205416	     -4.44426286	      4.27964621	      0.44702194
      0.87100000	     -4.80189971	      1.20287236	      0.44653120	     -0.32385302	      1.06886160	      0.34063899	     13.33120998	      1.80815995	     -1.09415261	    -16.19069778	      7.56575942	     -5.03390144	      9.24069985	     23.26040350	     -3.93184865	     -7.14136901	    -64.32790314	     10.95451475	      7.64980962	      6.48987225	     -4.44082236	      4.18757810	      0.52188940
      0.87516667	     -4.82955553	      1.29023347	      0.28156693	     -0.31916927	      1.06929436	      0.34113735	     12.94801332	      1.77103722	     -0.90555629	    -15.88719781	      7.66168327	     -5.00542441	      9.24083502	     23.68898298	     -3.90095282	     -7.36678037	    -63.59961307	     11.04373132	      7.72003450	      6.48078873	     -4.41242698	      4.06194586	      0.60201578
      0.87933333	     -4.81849742	      1.36892377	      0.10905018	     -0.31451321	      1.06976253	      0.34162589	     12.52433289	      1.74495988	     -0.68553071	    -15.58268499	      7.73573952	     -5.09443822	      9.23572991	     24.06055362	     -3.87779902	     -7.58517898	    -62.82620314	     11.12532284	      7.80634774	      6.45457315	     -4.43518364	      3.95340000	      0.87441351
      0.88350000	     -4.82671884	      1.45122343	     -0.05897256	     -0.30987541	      1.07014722	      0.34209763	     12.12947921	      1.70874596	     -0.48331655	    -15.29185906	      7.82049508	     -5.11169088	      9.23307024	     24.44691242	     -3.84729861	     -7.79484195	    -62.02407585	     11.18119777	      7.85074116	      6.42897381	     -4.43853945	      3.85092843	      1.00510367
      0.88766667	     -4.85556294	      1.53208609	     -0.22459759	     -0.30523860	      1.07044311	      0.34254560	     11.76826119	      1.66777329	     -0.30762553	    -15.02456323	      7.91735575	     -5.08422148	      9.23384166	     24.84665664	     -3.81627408	     -7.99713173	    -61.19308634	     11.21914828	      7.87559678	      6.41744935	     -4.41312619	      3.76842839	      1.05455822
      0.89183333	     -4.86942042	      1.60824432	     -0.38132300	     -0.30060837	      1.07074299	      0.34298035	     11.38060770	      1.63158502	     -0.11428246	    -14.73511769	      8.01016696	     -5.13805739	      9.23245256	     25.21956072	     -3.78384785	     -8.18071943	    -60.32527296	     11.23445353	      7.86502906	      6.39370171	     -4.40782171	      3.65733846	      1.22865136
